<!--?xml version="1.0"?-->
<svg xmlns="http://www.w3.org/2000/svg" viewBox="0 0 50 50">
    <path d="M 13 3 C 6.5146219 3 3.1582031 8.2226562 3.1582031 8.2226562 A 1.0001 1.0001 0 0 0 3 8.7617188 L 3 17.095703 A 1.0001 1.0001 0 0 0 3.1503906 17.623047 C 3.1503906 17.623047 6.4986048 23 13 23 C 14.260164 23 15.400553 22.676032 16.457031 22.173828 C 16.913655 23.674068 17 25 17 25 L 17 45 C 17 46.093063 17.906937 47 19 47 L 22 47 C 23.093063 47 24 46.093063 24 45 L 24 43.167969 A 1.0001 1.0001 0 0 0 24 42.841797 L 24 25.427734 C 24.006263 25.293978 24.247708 19.956206 23.103516 14.507812 C 22.524221 11.749123 21.598476 8.952634 20.013672 6.7617188 C 18.428867 4.5708034 16.074667 3 13 3 z M 37 3 C 33.925333 3 31.571133 4.5708033 29.986328 6.7617188 C 28.401524 8.9526341 27.475826 11.749118 26.896484 14.507812 C 25.752292 19.956206 25.993737 25.293978 26 25.427734 L 26 42.832031 A 1.0001 1.0001 0 0 0 26 43.158203 L 26 45 C 26 46.093063 26.906937 47 28 47 L 31 47 C 32.093063 47 33 46.093063 33 45 L 33 25 C 33 25 33.08635 23.674068 33.542969 22.173828 C 34.599447 22.676032 35.739836 23 37 23 C 43.501395 23 46.849609 17.623047 46.849609 17.623047 A 1.0001 1.0001 0 0 0 47 17.095703 L 47 8.7617188 A 1.0001 1.0001 0 0 0 46.841797 8.2226562 C 46.841797 8.2226562 43.485378 3 37 3 z M 13 5 C 15.425333 5 17.071133 6.106759 18.392578 7.9335938 C 19.714024 9.7604283 20.600826 12.321616 21.146484 14.919922 C 22.237802 20.116533 22.001953 25.380859 22.001953 25.380859 A 1.0001 1.0001 0 0 0 22 25.427734 L 22 42 L 21 42 A 1.0001 1.0001 0 1 0 21 44 L 22 44 L 22 45 L 19 45 L 19 25 C 19 25 19.128661 19.920848 15.611328 17.208984 A 1.0001 1.0001 0 1 0 14.388672 18.791016 C 14.936607 19.213474 15.331354 19.778776 15.673828 20.361328 C 14.894591 20.751177 14.047474 21 13 21 C 7.7952782 21 5.1938118 17.029887 5 16.728516 L 5 9.1347656 C 5.2033247 8.8276989 7.7906566 5 13 5 z M 37 5 C 42.209343 5 44.796675 8.8276989 45 9.1347656 L 45 16.728516 C 44.806188 17.029887 42.204722 21 37 21 C 35.952526 21 35.105409 20.751177 34.326172 20.361328 C 34.668646 19.778776 35.063393 19.213474 35.611328 18.791016 A 1.0001 1.0001 0 1 0 34.388672 17.208984 C 30.871339 19.920848 31 25 31 25 L 31 45 L 28 45 L 28 44 L 29 44 A 1.0001 1.0001 0 1 0 29 42 L 28 42 L 28 25.427734 A 1.0001 1.0001 0 0 0 27.998047 25.380859 C 27.998047 25.380859 27.762198 20.116533 28.853516 14.919922 C 29.399174 12.321616 30.285976 9.7604283 31.607422 7.9335938 C 32.928914 6.106754 34.574667 5 37 5 z M 15.972656 7.9902344 A 1.0001 1.0001 0 0 0 15.304688 9.71875 C 15.831822 10.228397 16.335675 10.945386 16.78125 11.830078 A 1.0001 1.0001 0 1 0 18.566406 10.931641 C 18.045981 9.898332 17.434178 8.9956033 16.695312 8.28125 A 1.0001 1.0001 0 0 0 15.972656 7.9902344 z M 33.998047 7.9902344 A 1.0001 1.0001 0 0 0 33.304688 8.28125 C 32.565821 8.9956033 31.954019 9.898332 31.433594 10.931641 A 1.0001 1.0001 0 1 0 33.21875 11.830078 C 33.664325 10.945386 34.168178 10.228397 34.695312 9.71875 A 1.0001 1.0001 0 0 0 33.998047 7.9902344 z M 8 12 A 1 1 0 0 0 7 13 A 1 1 0 0 0 8 14 A 1 1 0 0 0 9 13 A 1 1 0 0 0 8 12 z M 42 12 A 1 1 0 0 0 41 13 A 1 1 0 0 0 42 14 A 1 1 0 0 0 43 13 A 1 1 0 0 0 42 12 z"></path>
</svg>
