<!--?xml version="1.0"?-->
<svg xmlns="http://www.w3.org/2000/svg" viewBox="0 0 50 50">
    <path style="stroke:#fff;" d="M 25 2 C 12.309295 2 2 12.309295 2 25 C 2 37.690705 12.309295 48 25 48 C 37.690705 48 48 37.690705 48 25 C 48 12.309295 37.690705 2 25 2 z M 25 4 C 36.609824 4 46 13.390176 46 25 C 46 36.609824 36.609824 46 25 46 C 13.390176 46 4 36.609824 4 25 C 4 13.390176 13.390176 4 25 4 z M 16 15 L 16 16 L 16 35 L 23 35 L 23 15 L 16 15 z M 27 15 L 27 16 L 27 35 L 34 35 L 34 15 L 27 15 z M 18 17 L 21 17 L 21 33 L 18 33 L 18 17 z M 29 17 L 32 17 L 32 33 L 29 33 L 29 17 z"></path>
</svg>
