<!--?xml version="1.0"?-->
<svg xmlns="http://www.w3.org/2000/svg" viewBox="0 0 50 50">
    <path style="stroke:#fff;" d="M 25 2 C 12.309296 2 2 12.309296 2 25 C 2 37.690704 12.309296 48 25 48 C 37.690704 48 48 37.690704 48 25 C 48 12.309296 37.690704 2 25 2 z M 25 4 C 36.609824 4 46 13.390176 46 25 C 46 36.609824 36.609824 46 25 46 C 13.390176 46 4 36.609824 4 25 C 4 13.390176 13.390176 4 25 4 z M 18 13.25 L 18 15 L 18 35 L 18 36.75 L 19.5 35.875 L 36.5 25.875 L 37.96875 25 L 36.5 24.125 L 19.5 14.125 L 18 13.25 z M 20 16.75 L 34 25 L 20 33.25 L 20 16.75 z"></path>
</svg>
