<!--?xml version="1.0"?-->
<svg xmlns="http://www.w3.org/2000/svg" viewBox="0 0 48 48">
    <path style="fill:#ed802f;" d="M 25 2 C 12.309296 2 2 12.309296 2 25 C 2 37.690704 12.309296 48 25 48 C 37.690704 48 48 37.690704 48 25 C 48 12.309296 37.690704 2 25 2 z M 25 4 C 36.609824 4 46 13.390176 46 25 C 46 36.609824 36.609824 46 25 46 C 13.390176 46 4 36.609824 4 25 C 4 13.390176 13.390176 4 25 4 z"></path>
    <path style="stroke:#ed802f;stroke-width:2px" d="M 24.90625 11.96875 A 1.0001 1.0001 0 0 0 24.78125 12 A 1.0001 1.0001 0 0 0 24.6875 12.03125 A 1.0001 1.0001 0 0 0 24.59375 12.0625 A 1.0001 1.0001 0 0 0 24.40625 12.1875 A 1.0001 1.0001 0 0 0 24.28125 12.28125 A 1.0001 1.0001 0 0 0 24.15625 12.4375 L 16.28125 20.28125 A 1.016466 1.016466 0 1 0 17.71875 21.71875 L 24 15.4375 L 24 37 A 1.0001 1.0001 0 1 0 26 37 L 26 15.4375 L 32.28125 21.71875 A 1.016466 1.016466 0 1 0 33.71875 20.28125 L 25.84375 12.4375 A 1.0001 1.0001 0 0 0 25.5625 12.15625 A 1.0001 1.0001 0 0 0 25.1875 12 A 1.0001 1.0001 0 0 0 24.90625 11.96875 z"></path>
</svg>
