<?xml version="1.0" encoding="utf-8"?>
<svg version="1.1" id="phnx-cn" xmlns:svg="http://www.w3.org/2000/svg"
	 xmlns="http://www.w3.org/2000/svg" xmlns:xlink="http://www.w3.org/1999/xlink" x="0px" y="0px" viewBox="0 0 111.5 76.6"
	 style="enable-background:new 0 0 111.5 76.6;" xml:space="preserve">
<style type="text/css">
	.st0{fill:#F6D397;stroke:#ED802F;stroke-width:2;stroke-linejoin:round;stroke-miterlimit:10;}
	.st1{fill:#F9E3AE;}
	.st2{fill:#ED802F;}
	.st3{fill:none;stroke:#ED802F;stroke-width:2;stroke-linecap:round;stroke-linejoin:round;stroke-miterlimit:10;}
</style>
<path class="st0" d="M110,40c-0.5-5.1-2.7-11.9-5.6-16.8c-0.7-1.2-1.6-2.6-1.7-2.6c0,0,0.1,0.5,0.4,1c1.2,2.9,2.3,6.8,2.7,9.6
	c0.4,2.4,0.5,3.9,0.4,6.8c-0.1,2.8-0.2,4-0.6,6c-1.1,4.7-3.5,9.4-6.6,12.8c-0.8,0.9-1.7,1.8-1.7,1.7c0,0,0.3-0.6,0.6-1.3
	c2.2-4.5,3.7-9,4.3-14c0.2-1.4,0.2-2,0.2-4.9s0-3.6-0.2-4.9c-1.1-7.8-3.9-14.6-8.1-19.7C89.3,8.1,83.4,4.4,76.3,2.6
	c-3.2-0.8-6-1.1-9.6-1.1c-2.6,0-2.6,0-0.5,0.4c9.7,1.5,17.1,5.9,23.3,13.6c3.3,4.1,5.3,9.1,6.2,15c0.5,3.5,0.4,7.5-0.1,10.8
	c-0.5,3.1-1.9,6.7-3.4,8.9c-0.3,0.4-0.4,0.5-0.3,0.3c0.1-0.4,0.6-3.1,0.8-4.3c0.2-1.9,0.2-6.3,0-8.3c-0.8-6.9-3.1-13-6.8-18.2
	c-2.5-3.5-5.9-6.7-9.4-8.9c-4.8-3-9.2-4.6-14.4-5.3c-1.2-0.2-3.8-0.2-5.8-0.2c-2.1-0.1-5.3-0.1-6.7,0.1c-5.2,0.7-9.7,2.3-14.4,5.3
	c-3.6,2.2-7,5.4-9.4,8.9c-3.7,5.2-6,11.2-6.8,18.2c-0.2,2-0.2,6.4,0,8.3c0.2,1.2,0.6,3.9,0.8,4.3c0.1,0.3,0,0.1-0.3-0.3
	c-1.5-2.2-2.9-5.8-3.4-8.9c-0.5-3.2-0.6-7.3-0.1-10.8c0.8-5.9,2.8-10.8,6.2-15c6-7.7,13.5-12,23.1-13.5c2.1-0.4,2.1-0.4-0.5-0.4
	c-3.6,0-6.4,0.3-9.6,1.1c-7.1,1.7-13,5.5-17.7,11.2c-4.2,5.1-7,11.9-8.1,19.7c-0.2,1.3-0.2,1.9-0.2,4.9s0,3.6,0.2,4.9
	c0.7,5,2.1,9.5,4.3,14c0.3,0.7,0.6,1.3,0.6,1.3c0,0.1-0.9-0.8-1.7-1.7C9.5,53.5,7.1,48.8,6,44.1c-0.5-2-0.6-3.3-0.6-6
	c-0.1-2.9,0-4.4,0.4-6.8c0.4-2.8,1.5-6.7,2.7-9.6c0.2-0.5,0.4-1,0.4-1s-1,1.4-1.7,2.6c-2.9,4.9-5.1,11.6-5.6,16.8
	c-0.2,1.7-0.1,5.7,0.2,7.4c1.2,7.7,4.4,14.3,9.4,19.3c5.1,5.1,11.3,7.8,18.8,8.3c2,0.1,5-0.1,7-0.6c6.9-1.5,12.8-6.2,16-12.8
	c1.2-2.5,1.9-4.7,2.7-8.8c0.1-0.3,0.1-0.7,0.2-1c0.1,0.3,0.1,0.6,0.2,1c0.8,4.1,1.4,6.3,2.7,8.8c3.3,6.6,9.1,11.3,16,12.8
	c2,0.4,5,0.7,7,0.6c7.4-0.4,13.7-3.2,18.8-8.3c5-5,8.2-11.6,9.4-19.3C110,45.8,110.1,41.8,110,40z M55.8,44c-1,0-1.8,0.4-3,1.3
	c0,0-0.1,0.1-0.2,0.1c-1.1,0.8-1.9,1.8-3.4,4c-1.9,2.8-3.8,4.5-6,5.6c-1.3,0.6-2,0.8-4.1,0.8c-1.7,0-2,0-2.9-0.2
	c-1.8-0.5-3.2-1.1-4.4-2c-2.7-2-4.4-5.6-5-10.1c-0.1-1.2-0.1-4.3,0-5.6c0.7-6,3-11.5,6.6-16.1c2.7-3.3,7.5-7,11.7-8.9
	c2.9-1.3,5.7-2.1,8.8-2.4c0.3,0,0.7-0.1,1.1-0.1c1,0,1.9,0,2.5,0.1c3.1,0.4,5.9,1.2,8.8,2.4c4.3,1.9,9,5.5,11.7,8.9
	c3.7,4.6,5.9,10.1,6.6,16.1c0.1,1.3,0.2,4.4,0,5.6c-0.6,4.6-2.3,8.1-5,10.1c-1.3,1-2.6,1.6-4.4,2c-0.9,0.2-1.1,0.3-2.9,0.2
	c-2.1,0-2.8-0.1-4.1-0.8c-2.3-1.1-4.1-2.8-6-5.6c-1.5-2.2-2.3-3.2-3.4-4c-0.1,0-0.5-0.4-0.5-0.4C57.4,44.4,56.9,44,55.8,44z"/>
<g>
	<g id="path2874">
		<path class="st1" d="M41.6,45.3c-0.5,0-1,0-1.3-0.1l-0.4-0.1c-0.3-0.1-0.6-0.1-0.9-0.2c-0.2-0.1-1.8-0.6-2-1.5
			c-0.1-0.3,0-0.7,0.3-1c0.1-0.1,0.2-0.1,0.3-0.2c0,0,0.5-0.2,0.9-0.4c1.1-0.4,2.2-1.3,3.6-3.1c1-1.2,1.9-2,2.8-2.5
			c1-0.5,2.3-0.8,3.6-0.8c1.6,0,3,0.4,4,1.1l0.2,0.1c0.4,0.1,0.7,0.5,0.8,0.9c0,0.4-0.3,0.8-0.7,1l-0.6,0.2c-0.1,0-0.3,0.1-0.5,0.2
			c-0.2,0.1-0.4,0.2-0.6,0.2c-0.6,0.4-1.9,1.6-2.7,2.5c-1.7,2-3,3-4.5,3.3C43.5,45.2,42.5,45.3,41.6,45.3z"/>
		<path class="st2" d="M48.5,36.4c1.4,0,2.7,0.3,3.6,1l0.4,0.1l-0.6,0.2c-0.3,0.1-0.9,0.4-1.2,0.5c-0.7,0.4-2.2,1.8-3,2.8
			c-1.4,1.7-2.6,2.7-3.9,3c-0.6,0.2-1.4,0.3-2.2,0.3c-0.4,0-0.8,0-1.1-0.1c-0.4-0.1-0.9-0.2-1.2-0.3c-0.6-0.2-1.4-0.7-1.3-0.8
			c0,0,0.4-0.2,0.8-0.3c1.3-0.5,2.5-1.5,4.1-3.4c1-1.2,1.8-1.9,2.5-2.3C46.3,36.6,47.4,36.4,48.5,36.4 M48.5,34.4
			C48.5,34.4,48.5,34.4,48.5,34.4c-1.5,0-2.9,0.3-4.1,0.9c0,0,0,0-0.1,0c-1,0.6-1.9,1.4-3,2.8c-1.3,1.6-2.3,2.4-3.2,2.8
			c-0.5,0.1-1,0.4-1.1,0.4c-0.2,0.1-0.4,0.2-0.5,0.4c-0.5,0.5-0.7,1.2-0.5,1.9c0.3,1.3,1.9,2,2.6,2.2c0.3,0.1,0.6,0.2,1,0.3
			c0.1,0,0.3,0.1,0.4,0.1c0,0,0,0,0.1,0c0.5,0.1,1,0.2,1.6,0.2c1,0,1.9-0.1,2.7-0.4c1.7-0.4,3.1-1.5,4.9-3.7
			c0.7-0.9,1.9-1.9,2.3-2.3c0.2-0.1,0.3-0.1,0.5-0.2c0.2-0.1,0.3-0.1,0.4-0.2l0.6-0.2c0.8-0.3,1.4-1.1,1.4-2c0-0.9-0.7-1.6-1.5-1.9
			l-0.1,0C51.8,34.8,50.2,34.4,48.5,34.4L48.5,34.4z"/>
	</g>
	<g id="path2874_1_">
		<path class="st1" d="M69.9,45.3c-0.8,0-1.6-0.1-2.3-0.2c-1.7-0.5-3.1-1.5-4.5-3.4c-0.8-0.9-2.2-2.2-2.7-2.5
			c-0.2-0.1-0.5-0.2-1-0.4l-0.6-0.2c-0.4-0.1-0.6-0.4-0.7-0.8s0.1-0.8,0.4-1l0.3-0.2c1-0.7,2.5-1.1,4.2-1.1c1.4,0,2.6,0.3,3.6,0.8
			c0.9,0.5,1.8,1.3,2.8,2.5c1.5,1.8,2.5,2.8,3.6,3.1c0.4,0.1,0.9,0.3,1,0.4c0.1,0,0.2,0.1,0.3,0.2c0.2,0.2,0.3,0.6,0.3,0.9
			c-0.1,0.3-0.1,0.7-1.9,1.5c-0.3,0.1-0.5,0.1-0.8,0.2c-0.2,0-0.4,0.1-0.5,0.1C70.9,45.3,70.4,45.3,69.9,45.3z"/>
		<path class="st2" d="M63,36.4c1.1,0,2.3,0.2,3.1,0.7c0.7,0.4,1.5,1.1,2.5,2.3c1.6,2,2.8,3,4.1,3.4c0.4,0.1,0.8,0.3,0.8,0.3
			c0.1,0.1-0.6,0.5-1.3,0.8c-0.3,0.1-0.9,0.2-1.2,0.3c-0.3,0.1-0.7,0.1-1.2,0.1c-0.7,0-1.5-0.1-2-0.2c-1.4-0.4-2.6-1.3-3.9-3
			c-0.8-1-2.3-2.4-3-2.8c-0.3-0.2-0.9-0.4-1.2-0.5l-0.6-0.2l0.3-0.2C60.3,36.7,61.7,36.4,63,36.4 M63,34.4C63,34.4,63,34.4,63,34.4
			c-1.9,0-3.6,0.5-4.8,1.3L58,35.9c-0.6,0.4-1,1.2-0.9,1.9c0.1,0.8,0.6,1.4,1.3,1.6l0.6,0.2c0.4,0.1,0.7,0.2,0.8,0.3
			c0,0,0,0,0.1,0.1c0.4,0.2,1.7,1.4,2.4,2.3c1.5,2,3.1,3.1,4.9,3.7c0,0,0.1,0,0.1,0c0.7,0.2,1.7,0.3,2.5,0.3c0.6,0,1.2-0.1,1.6-0.2
			c0,0,0.1,0,0.1,0c0.1,0,0.3-0.1,0.4-0.1c0.3-0.1,0.6-0.1,0.8-0.2c0.1,0,0.1,0,0.2-0.1c1.6-0.7,2.3-1.3,2.5-2.2
			c0.1-0.7-0.1-1.4-0.6-1.8c-0.2-0.2-0.3-0.3-0.5-0.4c-0.1,0-0.6-0.3-1.1-0.4c-0.9-0.3-1.8-1.1-3.1-2.7c-1.1-1.4-2.1-2.2-3.1-2.8
			C66,34.7,64.6,34.4,63,34.4L63,34.4z"/>
	</g>
</g>
<line class="st3" x1="56" y1="15.5" x2="56" y2="20.5"/>
<line class="st3" x1="49.6" y1="16.5" x2="50.4" y2="21.5"/>
<line class="st3" x1="43.1" y1="19.7" x2="44.9" y2="24.3"/>
<line class="st3" x1="68.9" y1="19.7" x2="67.1" y2="24.3"/>
<line class="st3" x1="62.4" y1="16.5" x2="61.6" y2="21.5"/>
</svg>
