<!--?xml version="1.0"?-->
<svg xmlns="http://www.w3.org/2000/svg" viewBox="0 0 50 50" enable-background="new 0 0 50 50">
    <path style="fill:#ed802f;" d="M 44.34375 2 C 43.40425 2.000125 42.43525 2.346 41.71875 3.0625 L 40.375 4.4375 L 45.5625 9.625 C 45.5585 9.628 46.9375 8.28125 46.9375 8.28125 C 48.3715 6.84725 48.3695 4.4955 46.9375 3.0625 C 46.22 2.3455 45.28325 1.999875 44.34375 2 z M 38.75 5.9375 L 16.25 28.4375 L 16.03125 28.65625 L 15.96875 28.96875 L 15.03125 33.8125 L 14.71875 35.28125 L 16.1875 34.96875 L 21.03125 34.03125 L 21.34375 33.96875 L 21.5625 33.75 L 44.0625 11.25 L 42.625 9.84375 L 20.375 32.0625 L 17.9375 29.625 L 40.15625 7.375 L 38.75 5.9375 z M 3 10 C 2.447 10 2 10.448 2 11 L 2 47 C 2 47.552 2.447 48 3 48 L 39 48 C 39.553 48 40 47.552 40 47 L 40 18 L 38 20 L 38 46 L 4 46 L 4 12 L 30 12 L 32 10 L 3 10 z"></path>
</svg>
